<mxfile host="app.diagrams.net" modified="2021-10-12T02:13:38.219Z" agent="5.0 (Macintosh; Intel Mac OS X 10_15_7) AppleWebKit/537.36 (KHTML, like Gecko) Chrome/94.0.4606.81 Safari/537.36" etag="DblSr3ZZorLtOBXw1rzf" version="15.5.0" type="github">
  <diagram id="AT8X75EQDKF4iygfurvL" name="Page-1">
    <mxGraphModel dx="1220" dy="686" grid="1" gridSize="10" guides="1" tooltips="1" connect="1" arrows="1" fold="1" page="1" pageScale="1" pageWidth="827" pageHeight="1169" math="0" shadow="0">
      <root>
        <mxCell id="0" />
        <mxCell id="1" parent="0" />
        <mxCell id="7maCQXq_tneaWqIptVBl-1" value="" style="rounded=0;whiteSpace=wrap;html=1;" vertex="1" parent="1">
          <mxGeometry x="300" y="120" width="230" height="40" as="geometry" />
        </mxCell>
        <mxCell id="7maCQXq_tneaWqIptVBl-2" value="1" style="rounded=0;whiteSpace=wrap;html=1;" vertex="1" parent="1">
          <mxGeometry x="300" y="120" width="60" height="40" as="geometry" />
        </mxCell>
        <mxCell id="7maCQXq_tneaWqIptVBl-3" value="2" style="rounded=0;whiteSpace=wrap;html=1;" vertex="1" parent="1">
          <mxGeometry x="360" y="120" width="60" height="40" as="geometry" />
        </mxCell>
        <mxCell id="7maCQXq_tneaWqIptVBl-4" value="Queue1" style="rounded=0;whiteSpace=wrap;html=1;" vertex="1" parent="1">
          <mxGeometry x="200" y="120" width="60" height="40" as="geometry" />
        </mxCell>
        <mxCell id="7maCQXq_tneaWqIptVBl-5" value="3" style="rounded=0;whiteSpace=wrap;html=1;" vertex="1" parent="1">
          <mxGeometry x="420" y="120" width="60" height="40" as="geometry" />
        </mxCell>
        <mxCell id="7maCQXq_tneaWqIptVBl-6" value="4" style="rounded=0;whiteSpace=wrap;html=1;" vertex="1" parent="1">
          <mxGeometry x="480" y="120" width="60" height="40" as="geometry" />
        </mxCell>
        <mxCell id="7maCQXq_tneaWqIptVBl-7" value="" style="rounded=0;whiteSpace=wrap;html=1;" vertex="1" parent="1">
          <mxGeometry x="300" y="180" width="230" height="40" as="geometry" />
        </mxCell>
        <mxCell id="7maCQXq_tneaWqIptVBl-8" value="1" style="rounded=0;whiteSpace=wrap;html=1;" vertex="1" parent="1">
          <mxGeometry x="300" y="180" width="60" height="40" as="geometry" />
        </mxCell>
        <mxCell id="7maCQXq_tneaWqIptVBl-9" value="2" style="rounded=0;whiteSpace=wrap;html=1;" vertex="1" parent="1">
          <mxGeometry x="360" y="180" width="60" height="40" as="geometry" />
        </mxCell>
        <mxCell id="7maCQXq_tneaWqIptVBl-10" value="Queue1" style="rounded=0;whiteSpace=wrap;html=1;" vertex="1" parent="1">
          <mxGeometry x="200" y="180" width="60" height="40" as="geometry" />
        </mxCell>
        <mxCell id="7maCQXq_tneaWqIptVBl-11" value="3" style="rounded=0;whiteSpace=wrap;html=1;" vertex="1" parent="1">
          <mxGeometry x="420" y="180" width="60" height="40" as="geometry" />
        </mxCell>
        <mxCell id="7maCQXq_tneaWqIptVBl-12" value="4" style="rounded=0;whiteSpace=wrap;html=1;" vertex="1" parent="1">
          <mxGeometry x="480" y="180" width="60" height="40" as="geometry" />
        </mxCell>
        <mxCell id="7maCQXq_tneaWqIptVBl-13" value="" style="rounded=0;whiteSpace=wrap;html=1;" vertex="1" parent="1">
          <mxGeometry x="300" y="240" width="230" height="40" as="geometry" />
        </mxCell>
        <mxCell id="7maCQXq_tneaWqIptVBl-14" value="1" style="rounded=0;whiteSpace=wrap;html=1;" vertex="1" parent="1">
          <mxGeometry x="300" y="240" width="60" height="40" as="geometry" />
        </mxCell>
        <mxCell id="7maCQXq_tneaWqIptVBl-15" value="2" style="rounded=0;whiteSpace=wrap;html=1;" vertex="1" parent="1">
          <mxGeometry x="360" y="240" width="60" height="40" as="geometry" />
        </mxCell>
        <mxCell id="7maCQXq_tneaWqIptVBl-16" value="Queue3" style="rounded=0;whiteSpace=wrap;html=1;" vertex="1" parent="1">
          <mxGeometry x="200" y="240" width="60" height="40" as="geometry" />
        </mxCell>
        <mxCell id="7maCQXq_tneaWqIptVBl-17" value="3" style="rounded=0;whiteSpace=wrap;html=1;" vertex="1" parent="1">
          <mxGeometry x="420" y="240" width="60" height="40" as="geometry" />
        </mxCell>
        <mxCell id="7maCQXq_tneaWqIptVBl-18" value="4" style="rounded=0;whiteSpace=wrap;html=1;" vertex="1" parent="1">
          <mxGeometry x="480" y="240" width="60" height="40" as="geometry" />
        </mxCell>
        <mxCell id="7maCQXq_tneaWqIptVBl-20" value="偏移量" style="text;html=1;strokeColor=none;fillColor=none;align=center;verticalAlign=middle;whiteSpace=wrap;rounded=0;" vertex="1" parent="1">
          <mxGeometry x="297.5" y="80" width="52.5" height="30" as="geometry" />
        </mxCell>
        <mxCell id="7maCQXq_tneaWqIptVBl-21" value="" style="shape=curlyBracket;whiteSpace=wrap;html=1;rounded=1;size=0.5;" vertex="1" parent="1">
          <mxGeometry x="170" y="120" width="20" height="160" as="geometry" />
        </mxCell>
        <mxCell id="7maCQXq_tneaWqIptVBl-22" value="主题" style="text;html=1;strokeColor=none;fillColor=none;align=center;verticalAlign=middle;whiteSpace=wrap;rounded=0;" vertex="1" parent="1">
          <mxGeometry x="120" y="187.5" width="55" height="25" as="geometry" />
        </mxCell>
        <mxCell id="7maCQXq_tneaWqIptVBl-23" value="队列" style="text;html=1;strokeColor=none;fillColor=none;align=center;verticalAlign=middle;whiteSpace=wrap;rounded=0;" vertex="1" parent="1">
          <mxGeometry x="200" y="80" width="52.5" height="30" as="geometry" />
        </mxCell>
      </root>
    </mxGraphModel>
  </diagram>
</mxfile>
